# xmcd
#
# Track frame offsets:
#	150
#	16915
#	35159
#	56388
#	72850
#	89289
#
# Disc length: 1465 seconds
#
# Revision: 0
# Processed by: cddbd v1.5.2PL0 Copyright (c) Steve Scherf et al.
# Submitted via: audiograbber 1.83.01
#
DISCID=4605b706
DTITLE=Isabeau Miller - Go To Girl
DYEAR=2006
DGENRE=Pop
TTITLE0=Go-To Girl
TTITLE1=Loving You Alone
TTITLE2=Her
TTITLE3=Live And Love Your Lies 
TTITLE4=With
TTITLE5=My Resurrect
EXTD=
EXTT0=
EXTT1=
EXTT2=
EXTT3=
EXTT4=
EXTT5=
PLAYORDER=
